<?xml version="1.0" encoding="UTF-8" standalone="no"?>
<!DOCTYPE svg PUBLIC "-//W3C//DTD SVG 1.0//EN" "http://www.w3.org/TR/2001/PR-SVG-20010719/DTD/svg10.dtd">
<svg width="70cm" height="31cm" viewBox="0 0 1400 620" xmlns="http://www.w3.org/2000/svg">
  <defs>
    <marker id="arrowBlue" markerWidth="10" markerHeight="10" refX="9" refY="5" orient="auto">
      <path d="M0,0 L10,5 L0,10 Z" style="fill:#0000ff"/>
    </marker>
    <marker id="arrowPurple" markerWidth="10" markerHeight="10" refX="9" refY="5" orient="auto">
      <path d="M0,0 L10,5 L0,10 Z" style="fill:#a020f0"/>
    </marker>
    <marker id="arrowBlack" markerWidth="10" markerHeight="10" refX="9" refY="5" orient="auto">
      <path d="M0,0 L10,5 L0,10 Z" style="fill:#000000"/>
    </marker>
  </defs>

  <rect style="fill:#ffffff;stroke:#000000;stroke-width:2" x="180" y="80" width="900" height="430"/>
  <text x="630" y="112" style="fill:#000000;font-size:18px;text-anchor:middle;font-family:sans-serif">ASE Semantic Router</text>

  <rect style="fill:#ffffff;stroke:#000000;stroke-width:2;stroke-dasharray:6 4" x="250" y="140" width="520" height="44"/>
  <text x="510" y="168" style="fill:#000000;font-size:15px;text-anchor:middle;font-family:sans-serif">Routing / Policy Config: modelCards, signals, decisions</text>

  <rect style="fill:#ffffff;stroke:#000000;stroke-width:2" x="250" y="235" width="150" height="54"/>
  <text x="325" y="268" style="fill:#000000;font-size:14px;text-anchor:middle;font-family:sans-serif">Request Normalize</text>

  <rect style="fill:#ffffff;stroke:#000000;stroke-width:2" x="430" y="235" width="150" height="54"/>
  <text x="505" y="268" style="fill:#000000;font-size:14px;text-anchor:middle;font-family:sans-serif">Signal Extraction</text>

  <rect style="fill:#ffffff;stroke:#000000;stroke-width:2" x="610" y="235" width="150" height="54"/>
  <text x="685" y="268" style="fill:#000000;font-size:14px;text-anchor:middle;font-family:sans-serif">Decision Engine</text>

  <rect style="fill:#ffffff;stroke:#000000;stroke-width:2" x="790" y="235" width="150" height="54"/>
  <text x="865" y="268" style="fill:#000000;font-size:14px;text-anchor:middle;font-family:sans-serif">Pool Selection</text>

  <rect style="fill:#ffffff;stroke:#000000;stroke-width:2" x="520" y="340" width="220" height="58"/>
  <text x="630" y="365" style="fill:#000000;font-size:14px;text-anchor:middle;font-family:sans-serif">Plugin / RouteDecision</text>
  <text x="630" y="385" style="fill:#000000;font-size:13px;text-anchor:middle;font-family:sans-serif">target_pool + metadata + trace</text>

  <rect style="fill:#ffffff;stroke:#000000;stroke-width:2;stroke-dasharray:6 4" x="300" y="435" width="470" height="48"/>
  <text x="535" y="464" style="fill:#000000;font-size:14px;text-anchor:middle;font-family:sans-serif">Session / Policy Tags / Audit Trace / Semantic Cache Hooks</text>

  <line x1="325" y1="184" x2="325" y2="225" style="stroke:#000000;stroke-width:2" marker-end="url(#arrowBlack)"/>
  <line x1="505" y1="184" x2="505" y2="225" style="stroke:#000000;stroke-width:2" marker-end="url(#arrowBlack)"/>
  <line x1="685" y1="184" x2="685" y2="225" style="stroke:#000000;stroke-width:2" marker-end="url(#arrowBlack)"/>

  <line x1="400" y1="262" x2="430" y2="262" style="stroke:#000000;stroke-width:2" marker-end="url(#arrowBlack)"/>
  <line x1="580" y1="262" x2="610" y2="262" style="stroke:#000000;stroke-width:2" marker-end="url(#arrowBlack)"/>
  <line x1="760" y1="262" x2="790" y2="262" style="stroke:#000000;stroke-width:2" marker-end="url(#arrowBlack)"/>
  <line x1="865" y1="289" x2="865" y2="320" style="stroke:#000000;stroke-width:2" marker-end="url(#arrowBlack)"/>
  <line x1="865" y1="320" x2="740" y2="320" style="stroke:#000000;stroke-width:2"/>
  <line x1="740" y1="320" x2="740" y2="340" style="stroke:#000000;stroke-width:2" marker-end="url(#arrowBlack)"/>

  <rect style="fill:#ffffff;stroke:#000000;stroke-width:2" x="108" y="238" width="72" height="48"/>
  <text x="144" y="267" style="fill:#000000;font-size:14px;text-anchor:middle;font-family:sans-serif">Listener</text>

  <circle cx="48" cy="245" r="10" style="fill:#ffffff;stroke:#000000;stroke-width:2"/>
  <line x1="48" y1="255" x2="48" y2="290" style="stroke:#000000;stroke-width:2"/>
  <line x1="26" y1="268" x2="70" y2="268" style="stroke:#000000;stroke-width:2"/>
  <line x1="48" y1="290" x2="26" y2="315" style="stroke:#000000;stroke-width:2"/>
  <line x1="48" y1="290" x2="70" y2="315" style="stroke:#000000;stroke-width:2"/>
  <text x="48" y="345" style="fill:#000000;font-size:14px;text-anchor:middle;font-family:sans-serif">LLM User</text>

  <line x1="78" y1="262" x2="108" y2="262" style="stroke:#0000ff;stroke-width:2" marker-end="url(#arrowBlue)"/>
  <line x1="180" y1="262" x2="250" y2="262" style="stroke:#0000ff;stroke-width:2" marker-end="url(#arrowBlue)"/>

  <text x="92" y="244" style="fill:#000000;font-size:13px;text-anchor:start;font-family:sans-serif">LLM Request</text>

  <rect style="fill:#ffffff;stroke:#000000;stroke-width:2" x="1110" y="235" width="180" height="60"/>
  <text x="1200" y="260" style="fill:#000000;font-size:14px;text-anchor:middle;font-family:sans-serif">ASE LLM Load Balancer</text>
  <text x="1200" y="280" style="fill:#000000;font-size:13px;text-anchor:middle;font-family:sans-serif">replica selection</text>

  <line x1="740" y1="369" x2="1110" y2="265" style="stroke:#0000ff;stroke-width:2" marker-end="url(#arrowBlue)"/>
  <text x="900" y="330" style="fill:#000000;font-size:13px;text-anchor:start;font-family:sans-serif">RouteDecision: target_pool</text>

  <rect style="fill:#ffffff;stroke:#000000;stroke-width:2" x="1310" y="170" width="72" height="200"/>
  <text x="1346" y="156" style="fill:#000000;font-size:14px;text-anchor:middle;font-family:sans-serif">Model Pool</text>

  <rect style="fill:#ffffff;stroke:#000000;stroke-width:2" x="1320" y="185" width="52" height="34"/>
  <text x="1346" y="206" style="fill:#000000;font-size:12px;text-anchor:middle;font-family:sans-serif">vLLM</text>

  <rect style="fill:#ffffff;stroke:#000000;stroke-width:2" x="1320" y="245" width="52" height="34"/>
  <text x="1346" y="266" style="fill:#000000;font-size:12px;text-anchor:middle;font-family:sans-serif">vLLM</text>

  <rect style="fill:#ffffff;stroke:#000000;stroke-width:2" x="1320" y="305" width="52" height="34"/>
  <text x="1346" y="326" style="fill:#000000;font-size:12px;text-anchor:middle;font-family:sans-serif">vLLM</text>

  <text x="1346" y="356" style="fill:#000000;font-size:16px;text-anchor:middle;font-family:sans-serif">...</text>

  <line x1="1290" y1="265" x2="1310" y2="265" style="stroke:#0000ff;stroke-width:2" marker-end="url(#arrowBlue)"/>

  <line x1="1310" y1="395" x2="1110" y2="395" style="stroke:#a020f0;stroke-width:2" marker-end="url(#arrowPurple)"/>
  <line x1="1110" y1="395" x2="740" y2="395" style="stroke:#a020f0;stroke-width:2" marker-end="url(#arrowPurple)"/>
  <line x1="520" y1="470" x2="180" y2="470" style="stroke:#a020f0;stroke-width:2" marker-end="url(#arrowPurple)"/>
  <line x1="180" y1="470" x2="180" y2="300" style="stroke:#a020f0;stroke-width:2"/>
  <line x1="108" y1="300" x2="78" y2="300" style="stroke:#a020f0;stroke-width:2" marker-end="url(#arrowPurple)"/>

  <text x="1140" y="378" style="fill:#000000;font-size:13px;text-anchor:start;font-family:sans-serif">LLM Response</text>
</svg>
