<?xml version="1.0" encoding="UTF-8"?>
<svg xmlns="http://www.w3.org/2000/svg" width="1840" height="920" viewBox="0 0 1840 920" version="1.1">
  <defs>
    <style>
      .title { font-family: Helvetica, Arial, sans-serif; font-size: 28px; font-weight: 700; fill: #000000; }
      .subtitle { font-family: Helvetica, Arial, sans-serif; font-size: 20px; font-weight: 700; fill: #000000; }
      .section { font-family: Helvetica, Arial, sans-serif; font-size: 17px; font-weight: 700; fill: #000000; }
      .label { font-family: Helvetica, Arial, sans-serif; font-size: 15px; font-weight: 600; fill: #000000; }
      .small { font-family: Helvetica, Arial, sans-serif; font-size: 13px; fill: #000000; }
      .tiny { font-family: Helvetica, Arial, sans-serif; font-size: 12px; fill: #000000; }
      .box { fill: #ffffff; stroke: #000000; stroke-width: 2; }
      .router { fill: #ffffff; stroke: #000000; stroke-width: 2; }
      .lane { fill: #ffffff; stroke: #000000; stroke-width: 1.4; }
      .core { fill: #ffffff; stroke: #000000; stroke-width: 2.2; }
      .chip { fill: #ffffff; stroke: #000000; stroke-width: 1.2; }
      .focus { fill: #ffffff; stroke: #000000; stroke-width: 1.5; stroke-dasharray: 7 5; }
      .request { fill: none; stroke: #000000; stroke-width: 2.2; marker-end: url(#arrow); }
      .response { fill: none; stroke: #000000; stroke-width: 2.2; stroke-dasharray: 8 6; marker-end: url(#arrow); }
    </style>
    <marker id="arrow" markerWidth="10" markerHeight="10" refX="9" refY="5" orient="auto" markerUnits="strokeWidth">
      <path d="M 0 0 L 10 5 L 0 10 z" fill="#000000"/>
    </marker>
  </defs>

  <rect x="0" y="0" width="1840" height="920" fill="#ffffff"/>

  <rect x="170" y="40" width="1530" height="820" rx="18" class="box"/>
  <text x="935" y="78" text-anchor="middle" class="title">ASE LLM Gateway</text>

  <text x="250" y="120" class="tiny">Data Plane</text>
  <text x="900" y="120" class="tiny">Router Control Plane + Intelligence Plane</text>
  <text x="1480" y="120" class="tiny">Execution Plane</text>

  <rect x="40" y="420" width="110" height="56" rx="12" class="box"/>
  <text x="95" y="454" text-anchor="middle" class="label">LLM User</text>

  <rect x="210" y="290" width="220" height="150" rx="14" class="box"/>
  <text x="320" y="322" text-anchor="middle" class="subtitle">Gateway Frontend</text>
  <text x="320" y="355" text-anchor="middle" class="small">Listener</text>
  <text x="320" y="378" text-anchor="middle" class="small">REST API</text>
  <text x="320" y="401" text-anchor="middle" class="small">Req Security</text>

  <path d="M 150 448 L 180 448 L 180 365 L 210 365" class="request"/>
  <text x="160" y="404" class="small">LLM Request</text>

  <rect x="210" y="740" width="220" height="60" rx="12" class="box"/>
  <text x="320" y="776" text-anchor="middle" class="label">Resp Security / Return</text>

  <rect x="500" y="140" width="800" height="560" rx="18" class="router"/>
  <text x="900" y="176" text-anchor="middle" class="subtitle">LLM Semantic Router</text>

  <rect x="530" y="218" width="740" height="38" rx="10" class="lane"/>
  <text x="555" y="242" class="small">Control Plane: DSL / JSON configs | policies | model cards | preferences | sessions | overrides</text>

  <rect x="540" y="305" width="150" height="118" rx="12" class="core"/>
  <text x="615" y="338" text-anchor="middle" class="section">Signal</text>
  <text x="615" y="360" text-anchor="middle" class="section">Extraction</text>
  <text x="615" y="389" text-anchor="middle" class="tiny">keyword | embedding</text>
  <text x="615" y="407" text-anchor="middle" class="tiny">kNN | PII | jailbreak</text>

  <rect x="730" y="305" width="150" height="118" rx="12" class="core"/>
  <text x="805" y="338" text-anchor="middle" class="section">Projection</text>
  <text x="805" y="360" text-anchor="middle" class="section">Coordination</text>
  <text x="805" y="389" text-anchor="middle" class="tiny">partition | score</text>
  <text x="805" y="407" text-anchor="middle" class="tiny">mapping | continuity</text>

  <rect x="920" y="305" width="190" height="118" rx="12" class="core"/>
  <text x="1015" y="338" text-anchor="middle" class="section">Decision Engine</text>
  <text x="1015" y="374" text-anchor="middle" class="tiny">modelRefs | legal set F(r)</text>
  <text x="1015" y="392" text-anchor="middle" class="tiny">static | AutoMix | Elo | RouterDC</text>
  <text x="1015" y="410" text-anchor="middle" class="tiny">hybrid | latency-aware</text>

  <rect x="1150" y="305" width="130" height="118" rx="12" class="core"/>
  <text x="1215" y="338" text-anchor="middle" class="section">Plugin</text>
  <text x="1215" y="360" text-anchor="middle" class="section">Chain</text>
  <text x="1215" y="389" text-anchor="middle" class="tiny">RouteDecision</text>
  <text x="1215" y="407" text-anchor="middle" class="tiny">target_pool | confidence</text>

  <path d="M 430 365 L 500 365 L 500 364 L 540 364" class="request"/>
  <path d="M 690 364 L 730 364" class="request"/>
  <path d="M 880 364 L 920 364" class="request"/>
  <path d="M 1110 364 L 1150 364" class="request"/>

  <rect x="530" y="470" width="740" height="120" rx="14" class="focus"/>
  <text x="565" y="500" class="section">Plugin Fabric</text>
  <text x="565" y="520" class="small">pre-route</text>
  <text x="865" y="520" class="small">post-decision</text>
  <text x="1135" y="520" class="small">post-response</text>

  <rect x="560" y="545" width="105" height="28" rx="8" class="chip"/>
  <text x="612.5" y="563" text-anchor="middle" class="tiny">semantic-cache</text>

  <rect x="685" y="545" width="80" height="28" rx="8" class="chip"/>
  <text x="725" y="563" text-anchor="middle" class="tiny">pii</text>

  <rect x="785" y="545" width="90" height="28" rx="8" class="chip"/>
  <text x="830" y="563" text-anchor="middle" class="tiny">jailbreak</text>

  <rect x="900" y="545" width="110" height="28" rx="8" class="chip"/>
  <text x="955" y="563" text-anchor="middle" class="tiny">system_prompt</text>

  <rect x="1030" y="545" width="120" height="28" rx="8" class="chip"/>
  <text x="1090" y="563" text-anchor="middle" class="tiny">header_mutation</text>

  <rect x="1170" y="545" width="80" height="28" rx="8" class="chip"/>
  <text x="1210" y="563" text-anchor="middle" class="tiny">trace/audit</text>

  <path d="M 1215 423 L 1215 470" class="request"/>

  <rect x="530" y="620" width="740" height="34" rx="10" class="lane"/>
  <text x="555" y="642" class="small">Feedback Loop: rating | ReMoM | cache update</text>

  <rect x="1395" y="220" width="245" height="180" rx="14" class="focus"/>
  <text x="1517.5" y="250" text-anchor="middle" class="section">Algorithmic Focus</text>
  <text x="1420" y="288" class="small">signal retrieval: kNN</text>
  <text x="1420" y="318" class="small">ranking: AutoMix | Elo | RouterDC</text>
  <text x="1420" y="348" class="small">selection: hybrid | latency-aware</text>
  <text x="1420" y="378" class="small">calibration: confidence | rating | ReMoM</text>

  <rect x="1395" y="500" width="245" height="110" rx="14" class="box"/>
  <text x="1517.5" y="532" text-anchor="middle" class="subtitle">ASE LLM Load Balancer</text>
  <text x="1517.5" y="562" text-anchor="middle" class="small">health | load | locality | queue depth</text>
  <text x="1517.5" y="584" text-anchor="middle" class="small">runtime endpoint scheduling</text>

  <path d="M 1280 364 L 1340 364 L 1340 555 L 1395 555" class="request"/>
  <text x="1288" y="346" class="small">RouteDecision / target_pool</text>

  <rect x="1680" y="330" width="120" height="220" rx="14" class="box"/>
  <text x="1740" y="358" text-anchor="middle" class="label">Target Pool</text>

  <rect x="1705" y="390" width="70" height="30" rx="8" class="chip"/>
  <text x="1740" y="409" text-anchor="middle" class="tiny">LLM-1</text>

  <rect x="1705" y="440" width="70" height="30" rx="8" class="chip"/>
  <text x="1740" y="459" text-anchor="middle" class="tiny">LLM-2</text>

  <rect x="1705" y="490" width="70" height="30" rx="8" class="chip"/>
  <text x="1740" y="509" text-anchor="middle" class="tiny">LLM-N</text>

  <path d="M 1640 555 L 1680 440" class="request"/>

  <path d="M 1680 525 L 460 525 L 460 770 L 430 770" class="response"/>
  <path d="M 210 770 L 180 770 L 180 448 L 150 448" class="response"/>
  <text x="116" y="810" class="small">LLM Response</text>
</svg>
