<?xml version="1.0" encoding="UTF-8" standalone="no"?>
<!DOCTYPE svg PUBLIC "-//W3C//DTD SVG 1.0//EN" "http://www.w3.org/TR/2001/PR-SVG-20010719/DTD/svg10.dtd">
<svg width="68cm" height="28cm" viewBox="175 118 1352 556" xmlns="http://www.w3.org/2000/svg" xmlns:xlink="http://www.w3.org/1999/xlink">
  <g>
    <rect style="fill: #ffffff" x="373.281" y="138.784" width="995.286" height="534.333"/>
    <rect style="fill: none; fill-opacity:0; stroke-width: 2; stroke: #000000" x="373.281" y="138.784" width="995.286" height="534.333"/>
    <text font-size="12.8" style="fill: #000000;text-anchor:middle;font-family:sans-serif;font-style:normal;font-weight:normal" x="870.925" y="410.751">
      <tspan x="870.925" y="410.751"></tspan>
    </text>
  </g>
  <g>
    <ellipse style="fill: #ffffff" cx="201.5" cy="300" rx="6" ry="6"/>
    <ellipse style="fill: none; fill-opacity:0; stroke-width: 2; stroke: #000000" cx="201.5" cy="300" rx="6" ry="6"/>
    <line style="fill: none; fill-opacity:0; stroke-width: 2; stroke: #000000" x1="177.5" y1="312" x2="225.5" y2="312"/>
    <line style="fill: none; fill-opacity:0; stroke-width: 2; stroke: #000000" x1="201.5" y1="306" x2="201.5" y2="336"/>
    <line style="fill: none; fill-opacity:0; stroke-width: 2; stroke: #000000" x1="201.5" y1="336" x2="177.5" y2="362"/>
    <line style="fill: none; fill-opacity:0; stroke-width: 2; stroke: #000000" x1="201.5" y1="336" x2="225.5" y2="362"/>
    <text font-size="12.8" style="fill: #000000;text-anchor:middle;font-family:sans-serif;font-style:normal;font-weight:normal" x="201.5" y="386.8">
      <tspan x="201.5" y="386.8">LLM User</tspan>
    </text>
  </g>
  <text font-size="12.8" style="fill: #000000;text-anchor:start;font-family:sans-serif;font-style:normal;font-weight:normal" x="273.167" y="305.334">
    <tspan x="273.167" y="305.334">LLM Request</tspan>
  </text>
  <text font-size="12.8" style="fill: #000000;text-anchor:start;font-family:sans-serif;font-style:normal;font-weight:normal" x="268.767" y="379.034">
    <tspan x="268.767" y="379.034">LLM Response</tspan>
  </text>
  <g>
    <line style="fill: none; fill-opacity:0; stroke-width: 2; stroke: #a020f0" x1="252.278" y1="355.859" x2="391.177" y2="356.834"/>
    <polygon style="fill: #a020f0" points="252.313,350.859 242.278,355.789 252.243,360.859 "/>
    <polygon style="fill: none; fill-opacity:0; stroke-width: 2; stroke: #a020f0" points="252.313,350.859 242.278,355.789 252.243,360.859 "/>
  </g>
  <g>
    <rect style="fill: #ffffff" x="1387.94" y="333.834" width="138.287" height="200"/>
    <rect style="fill: none; fill-opacity:0; stroke-width: 2; stroke: #000000" x="1387.94" y="333.834" width="138.287" height="200"/>
    <text font-size="12.8" style="fill: #000000;text-anchor:middle;font-family:sans-serif;font-style:normal;font-weight:normal" x="1457.09" y="438.634">
      <tspan x="1457.09" y="438.634"></tspan>
    </text>
  </g>
  <g>
    <rect style="fill: #ffffff" x="1414.03" y="344.034" width="85.8" height="38"/>
    <rect style="fill: none; fill-opacity:0; stroke-width: 2; stroke: #000000" x="1414.03" y="344.034" width="85.8" height="38"/>
    <text font-size="12.8" style="fill: #000000;text-anchor:middle;font-family:sans-serif;font-style:normal;font-weight:normal" x="1456.93" y="367.834">
      <tspan x="1456.93" y="367.834">LLM server</tspan>
    </text>
  </g>
  <g>
    <rect style="fill: #ffffff" x="1415.03" y="406.034" width="85.8" height="38"/>
    <rect style="fill: none; fill-opacity:0; stroke-width: 2; stroke: #000000" x="1415.03" y="406.034" width="85.8" height="38"/>
    <text font-size="12.8" style="fill: #000000;text-anchor:middle;font-family:sans-serif;font-style:normal;font-weight:normal" x="1457.93" y="429.834">
      <tspan x="1457.93" y="429.834">LLM server</tspan>
    </text>
  </g>
  <g>
    <rect style="fill: #ffffff" x="1416.03" y="480.034" width="85.8" height="38"/>
    <rect style="fill: none; fill-opacity:0; stroke-width: 2; stroke: #000000" x="1416.03" y="480.034" width="85.8" height="38"/>
    <text font-size="12.8" style="fill: #000000;text-anchor:middle;font-family:sans-serif;font-style:normal;font-weight:normal" x="1458.93" y="503.834">
      <tspan x="1458.93" y="503.834">LLM server</tspan>
    </text>
  </g>
  <text font-size="12.8" style="fill: #000000;text-anchor:start;font-family:sans-serif;font-style:normal;font-weight:normal" x="1452.83" y="462.334">
    <tspan x="1452.83" y="462.334">...</tspan>
  </text>
  <text font-size="12.8" style="fill: #000000;text-anchor:start;font-family:sans-serif;font-style:normal;font-weight:normal" x="1424.33" y="326.734">
    <tspan x="1424.33" y="326.734">LLM Cluster</tspan>
  </text>
  <g>
    <rect style="fill: #ffffff" x="429.401" y="146.168" width="110.1" height="38"/>
    <rect style="fill: none; fill-opacity:0; stroke-width: 2; stroke: #000000" x="429.401" y="146.168" width="110.1" height="38"/>
    <text font-size="12.8" style="fill: #000000;text-anchor:middle;font-family:sans-serif;font-style:normal;font-weight:normal" x="484.451" y="169.968">
      <tspan x="484.451" y="169.968">LLM Listener</tspan>
    </text>
  </g>
  <line style="fill: none; fill-opacity:0; stroke-width: 2; stroke: #0000ff" x1="243.235" y1="314.45" x2="393.899" y2="314.784"/>
  <line style="fill: none; fill-opacity:0; stroke-width: 2; stroke: #0000ff" x1="392.569" y1="164.118" x2="391.949" y2="313.45"/>
  <g>
    <line style="fill: none; fill-opacity:0; stroke-width: 2; stroke: #0000ff" x1="389.901" y1="165.45" x2="418.401" y2="165.247"/>
    <polygon style="fill: #0000ff" points="418.437,170.246 428.401,165.175 418.365,160.247 "/>
    <polygon style="fill: none; fill-opacity:0; stroke-width: 2; stroke: #0000ff" points="418.437,170.246 428.401,165.175 418.365,160.247 "/>
  </g>
  <g>
    <rect style="fill: #ffffff" x="604" y="207" width="517.5" height="276"/>
    <rect style="fill: none; fill-opacity:0; stroke-width: 2; stroke: #000000" x="604" y="207" width="517.5" height="276"/>
    <text font-size="12.8" style="fill: #000000;text-anchor:middle;font-family:sans-serif;font-style:normal;font-weight:normal" x="862.75" y="349.8">
      <tspan x="862.75" y="349.8"></tspan>
    </text>
  </g>
  <line style="fill: none; fill-opacity:0; stroke-width: 2; stroke: #0000ff" x1="548.435" y1="424.118" x2="584.5" y2="423"/>
  <g>
    <rect style="fill: #ffffff" x="421.483" y="481.234" width="122.3" height="38"/>
    <rect style="fill: none; fill-opacity:0; stroke-width: 2; stroke: #000000" x="421.483" y="481.234" width="122.3" height="38"/>
    <text font-size="12.8" style="fill: #000000;text-anchor:middle;font-family:sans-serif;font-style:normal;font-weight:normal" x="482.633" y="505.034">
      <tspan x="482.633" y="505.034">Semantic Caching</tspan>
    </text>
  </g>
  <g>
    <line style="fill: none; fill-opacity:0; stroke-width: 2; stroke-dasharray: 4; stroke: #a020f0" x1="483.371" y1="443.668" x2="482.849" y2="470.236"/>
    <polygon style="fill: #a020f0" points="477.85,470.138 482.652,480.234 487.848,470.334 "/>
    <polygon style="fill: none; fill-opacity:0; stroke-width: 2; stroke: #a020f0" points="477.85,470.138 482.652,480.234 487.848,470.334 "/>
  </g>
  <g>
    <line style="fill: none; fill-opacity:0; stroke-width: 2; stroke: #0000ff" x1="742.308" y1="360.509" x2="777.638" y2="360.21"/>
    <polygon style="fill: #0000ff" points="777.68,365.21 787.637,360.126 777.595,355.211 "/>
    <polygon style="fill: none; fill-opacity:0; stroke-width: 2; stroke: #0000ff" points="777.68,365.21 787.637,360.126 777.595,355.211 "/>
  </g>
  <g>
    <line style="fill: none; fill-opacity:0; stroke-width: 2; stroke: #0000ff" x1="854.075" y1="471.4" x2="853.767" y2="516.134"/>
    <polygon style="fill: #0000ff" points="848.767,516.1 853.699,526.134 858.767,516.169 "/>
    <polygon style="fill: none; fill-opacity:0; stroke-width: 2; stroke: #0000ff" points="848.767,516.1 853.699,526.134 858.767,516.169 "/>
  </g>
  <g>
    <line style="fill: none; fill-opacity:0; stroke-width: 2; stroke: #a020f0" x1="1198.2" y1="629.081" x2="1261.28" y2="630.784"/>
    <polygon style="fill: #a020f0" points="1198.34,624.083 1188.21,628.811 1198.07,634.079 "/>
    <polygon style="fill: none; fill-opacity:0; stroke-width: 2; stroke: #a020f0" points="1198.34,624.083 1188.21,628.811 1198.07,634.079 "/>
  </g>
  <g>
    <line style="fill: none; fill-opacity:0; stroke-width: 2; stroke-dasharray: 4; stroke: #a020f0" x1="404.898" y1="500.364" x2="421.483" y2="500.234"/>
    <polygon style="fill: #a020f0" points="404.859,495.364 394.899,500.442 404.937,505.364 "/>
    <polygon style="fill: none; fill-opacity:0; stroke-width: 2; stroke: #a020f0" points="404.859,495.364 394.899,500.442 404.937,505.364 "/>
  </g>
  <line style="fill: none; fill-opacity:0; stroke-width: 2; stroke: #a020f0" x1="394.179" y1="357.488" x2="395.235" y2="629.45"/>
  <line style="fill: none; fill-opacity:0; stroke-width: 2; stroke: #a020f0" x1="1261.9" y1="632.45" x2="1262.61" y2="453.193"/>
  <g>
    <line style="fill: none; fill-opacity:0; stroke-width: 2; stroke: #0000ff" x1="1329.92" y1="403.134" x2="1404.56" y2="359.121"/>
    <polygon style="fill: #0000ff" points="1407.1,363.428 1413.17,354.042 1402.02,354.814 "/>
    <polygon style="fill: none; fill-opacity:0; stroke-width: 2; stroke: #0000ff" points="1407.1,363.428 1413.17,354.042 1402.02,354.814 "/>
  </g>
  <g>
    <line style="fill: none; fill-opacity:0; stroke-width: 2; stroke: #0000ff" x1="1329.92" y1="430.134" x2="1404.05" y2="425.692"/>
    <polygon style="fill: #0000ff" points="1404.35,430.683 1414.03,425.094 1403.75,420.701 "/>
    <polygon style="fill: none; fill-opacity:0; stroke-width: 2; stroke: #0000ff" points="1404.35,430.683 1414.03,425.094 1403.75,420.701 "/>
  </g>
  <g>
    <line style="fill: none; fill-opacity:0; stroke-width: 2; stroke: #0000ff" x1="1333.9" y1="434.45" x2="1407.39" y2="492.235"/>
    <polygon style="fill: #0000ff" points="1404.3,496.165 1415.25,498.416 1410.48,488.304 "/>
    <polygon style="fill: none; fill-opacity:0; stroke-width: 2; stroke: #0000ff" points="1404.3,496.165 1415.25,498.416 1410.48,488.304 "/>
  </g>
  <g>
    <line style="fill: none; fill-opacity:0; stroke-width: 2; stroke: #a020f0" x1="1414.03" y1="372.534" x2="1339.66" y2="411.526"/>
    <polygon style="fill: #a020f0" points="1337.34,407.098 1330.8,416.17 1341.98,415.955 "/>
    <polygon style="fill: none; fill-opacity:0; stroke-width: 2; stroke: #a020f0" points="1337.34,407.098 1330.8,416.17 1341.98,415.955 "/>
  </g>
  <g>
    <line style="fill: none; fill-opacity:0; stroke-width: 2; stroke: #a020f0" x1="1415.03" y1="438.534" x2="1340.9" y2="434.702"/>
    <polygon style="fill: #a020f0" points="1341.16,429.709 1330.92,434.186 1340.64,439.695 "/>
    <polygon style="fill: none; fill-opacity:0; stroke-width: 2; stroke: #a020f0" points="1341.16,429.709 1330.92,434.186 1340.64,439.695 "/>
  </g>
  <g>
    <line style="fill: none; fill-opacity:0; stroke-width: 2; stroke: #a020f0" x1="1338.7" y1="450.254" x2="1416.03" y2="508.534"/>
    <polygon style="fill: #a020f0" points="1341.71,446.261 1330.72,444.236 1335.69,454.247 "/>
    <polygon style="fill: none; fill-opacity:0; stroke-width: 2; stroke: #a020f0" points="1341.71,446.261 1330.72,444.236 1335.69,454.247 "/>
  </g>
  <g>
    <line style="fill: none; fill-opacity:0; stroke-width: 2; stroke: #0000ff" x1="484.485" y1="266.118" x2="484.398" y2="289.118"/>
    <polygon style="fill: #0000ff" points="479.398,289.099 484.36,299.118 489.398,289.137 "/>
    <polygon style="fill: none; fill-opacity:0; stroke-width: 2; stroke: #0000ff" points="479.398,289.099 484.36,299.118 489.398,289.137 "/>
  </g>
  <g>
    <line style="fill: none; fill-opacity:0; stroke-width: 2; stroke: #0000ff" x1="483.025" y1="345.584" x2="483.409" y2="391.784"/>
    <polygon style="fill: #0000ff" points="478.409,391.826 483.492,401.784 488.409,391.743 "/>
    <polygon style="fill: none; fill-opacity:0; stroke-width: 2; stroke: #0000ff" points="478.409,391.826 483.492,401.784 488.409,391.743 "/>
  </g>
  <g>
    <line style="fill: none; fill-opacity:0; stroke-width: 2; stroke: #000000" x1="682.985" y1="578.45" x2="682.918" y2="619.784"/>
    <polygon style="fill: #000000" points="677.918,619.776 682.902,629.784 687.918,619.792 "/>
    <polygon style="fill: none; fill-opacity:0; stroke-width: 2; stroke: #000000" points="677.918,619.776 682.902,629.784 687.918,619.792 "/>
  </g>
  <text font-size="12.8" style="fill: #000000;text-anchor:start;font-family:sans-serif;font-style:normal;font-weight:normal" x="829.501" y="131">
    <tspan x="829.501" y="131">ASE LLM Gateway</tspan>
  </text>
  <g>
    <line style="fill: none; fill-opacity:0; stroke-width: 2; stroke: #0000ff" x1="484.451" y1="184.168" x2="484.471" y2="199.784"/>
    <polygon style="fill: #0000ff" points="479.471,199.79 484.483,209.784 489.471,199.778 "/>
    <polygon style="fill: none; fill-opacity:0; stroke-width: 2; stroke: #0000ff" points="479.471,199.79 484.483,209.784 489.471,199.778 "/>
  </g>
  <g>
    <rect style="fill: #ffffff" x="425.635" y="210.784" width="117.7" height="38"/>
    <rect style="fill: none; fill-opacity:0; stroke-width: 2; stroke: #000000" x="425.635" y="210.784" width="117.7" height="38"/>
    <text font-size="12.8" style="fill: #000000;text-anchor:middle;font-family:sans-serif;font-style:normal;font-weight:normal" x="484.485" y="234.584">
      <tspan x="484.485" y="234.584">Ports</tspan>
    </text>
  </g>
  <g>
    <rect style="fill: #ffffff" x="440.101" y="219.118" width="117.7" height="38"/>
    <rect style="fill: none; fill-opacity:0; stroke-width: 2; stroke: #000000" x="440.101" y="219.118" width="117.7" height="38"/>
    <text font-size="12.8" style="fill: #000000;text-anchor:middle;font-family:sans-serif;font-style:normal;font-weight:normal" x="498.951" y="242.918">
      <tspan x="498.951" y="242.918">Ports</tspan>
    </text>
  </g>
  <g>
    <rect style="fill: #ffffff" x="452.101" y="228.45" width="117.7" height="38"/>
    <rect style="fill: none; fill-opacity:0; stroke-width: 2; stroke: #000000" x="452.101" y="228.45" width="117.7" height="38"/>
    <text font-size="12.8" style="fill: #000000;text-anchor:middle;font-family:sans-serif;font-style:normal;font-weight:normal" x="510.951" y="252.25">
      <tspan x="510.951" y="252.25">Ports</tspan>
    </text>
  </g>
  <g>
    <rect style="fill: #ffffff" x="405.275" y="298.784" width="155.5" height="44.1333"/>
    <rect style="fill: none; fill-opacity:0; stroke-width: 2; stroke: #000000" x="405.275" y="298.784" width="155.5" height="44.1333"/>
    <text font-size="12.8" style="fill: #000000;text-anchor:middle;font-family:sans-serif;font-style:normal;font-weight:normal" x="483.025" y="325.651">
      <tspan x="483.025" y="325.651">LLM Restful API Service</tspan>
    </text>
  </g>
  <g>
    <rect style="fill: #ffffff" x="1024.11" y="601.784" width="163.1" height="54"/>
    <rect style="fill: none; fill-opacity:0; stroke-width: 2; stroke: #000000" x="1024.11" y="601.784" width="163.1" height="54"/>
    <text font-size="12.8" style="fill: #000000;text-anchor:middle;font-family:sans-serif;font-style:normal;font-weight:normal" x="1105.66" y="633.584">
      <tspan x="1105.66" y="633.584">LLM response Processing</tspan>
    </text>
  </g>
  <line style="fill: none; fill-opacity:0; stroke-width: 2; stroke: #a020f0" x1="393.671" y1="627.508" x2="1024.11" y2="628.784"/>
  <text font-size="12.8" style="fill: #000000;text-anchor:start;font-family:sans-serif;font-style:normal;font-weight:normal" x="810.101" y="190.7">
    <tspan x="810.101" y="190.7">LLM Semantic Router</tspan>
  </text>
  <g>
    <rect style="fill: #ffffff" x="622.058" y="340.784" width="120.25" height="39.45"/>
    <rect style="fill: none; fill-opacity:0; stroke-width: 2; stroke: #000000" x="622.058" y="340.784" width="120.25" height="39.45"/>
    <text font-size="12.8" style="fill: #000000;text-anchor:middle;font-family:sans-serif;font-style:normal;font-weight:normal" x="682.183" y="365.309">
      <tspan x="682.183" y="365.309">Signals Collection</tspan>
    </text>
  </g>
  <g>
    <line style="fill: none; fill-opacity:0; stroke-width: 2; stroke: #0000ff" x1="855.25" y1="406" x2="854.546" y2="422.41"/>
    <polygon style="fill: #0000ff" points="849.551,422.196 854.118,432.401 859.542,422.624 "/>
    <polygon style="fill: none; fill-opacity:0; stroke-width: 2; stroke: #0000ff" points="849.551,422.196 854.118,432.401 859.542,422.624 "/>
  </g>
  <text font-size="12.8" style="fill: #000000;text-anchor:start;font-family:sans-serif;font-style:normal;font-weight:normal" x="870.925" y="343.951">
    <tspan x="870.925" y="343.951"></tspan>
  </text>
  <g>
    <rect style="fill: #ffffff" x="417.535" y="405.118" width="130.9" height="38"/>
    <rect style="fill: none; fill-opacity:0; stroke-width: 2; stroke: #000000" x="417.535" y="405.118" width="130.9" height="38"/>
    <text font-size="12.8" style="fill: #000000;text-anchor:middle;font-family:sans-serif;font-style:normal;font-weight:normal" x="482.985" y="428.918">
      <tspan x="482.985" y="428.918">Req Security Check</tspan>
    </text>
  </g>
  <g>
    <rect style="fill: #ffffff" x="614.685" y="553.45" width="136.6" height="38"/>
    <rect style="fill: none; fill-opacity:0; stroke-width: 2; stroke: #000000" x="614.685" y="553.45" width="136.6" height="38"/>
    <text font-size="12.8" style="fill: #000000;text-anchor:middle;font-family:sans-serif;font-style:normal;font-weight:normal" x="682.985" y="577.25">
      <tspan x="682.985" y="577.25">Resp Security Check</tspan>
    </text>
  </g>
  <g>
    <rect style="fill: #ffffff" x="1194.5" y="398.2" width="136.45" height="54"/>
    <rect style="fill: none; fill-opacity:0; stroke-width: 2; stroke: #000000" x="1194.5" y="398.2" width="136.45" height="54"/>
    <text font-size="12.8" style="fill: #000000;text-anchor:middle;font-family:sans-serif;font-style:normal;font-weight:normal" x="1262.72" y="422">
      <tspan x="1262.72" y="422">Connection </tspan>
      <tspan x="1262.72" y="438">Mapping Table</tspan>
    </text>
  </g>
  <line style="fill: none; fill-opacity:0; stroke-width: 2; stroke: #0000ff" x1="930.767" y1="549.567" x2="1165" y2="551"/>
  <line style="fill: none; fill-opacity:0; stroke-width: 2; stroke: #0000ff" x1="1165" y1="422" x2="1166" y2="551"/>
  <g>
    <line style="fill: none; fill-opacity:0; stroke-width: 2; stroke: #0000ff" x1="1165" y1="424" x2="1183.51" y2="424.753"/>
    <polygon style="fill: #0000ff" points="1183.31,429.749 1193.5,425.159 1183.71,419.757 "/>
    <polygon style="fill: none; fill-opacity:0; stroke-width: 2; stroke: #0000ff" points="1183.31,429.749 1193.5,425.159 1183.71,419.757 "/>
  </g>
  <text font-size="12.8" style="fill: #000000;text-anchor:start;font-family:sans-serif;font-style:normal;font-weight:normal" x="763.5" y="503">
    <tspan x="763.5" y="503">model selected</tspan>
  </text>
  <text font-size="12.8" style="fill: #000000;text-anchor:start;font-family:sans-serif;font-style:normal;font-weight:normal" x="956.5" y="570">
    <tspan x="956.5" y="570">endpoint selected</tspan>
  </text>
  <g>
    <rect style="fill: #ffffff" x="959.025" y="319.65" width="139.45" height="38"/>
    <rect style="fill: none; fill-opacity:0; stroke-width: 2; stroke: #000000" x="959.025" y="319.65" width="139.45" height="38"/>
    <text font-size="12.8" style="fill: #000000;text-anchor:middle;font-family:sans-serif;font-style:normal;font-weight:normal" x="1028.75" y="343.45">
      <tspan x="1028.75" y="343.45">Router Configuration</tspan>
    </text>
  </g>
  <text font-size="12.8" style="fill: #000000;text-anchor:start;font-family:sans-serif;font-style:normal;font-weight:normal" x="744.5" y="424">
    <tspan x="744.5" y="424">Candidate models</tspan>
  </text>
  <g>
    <rect style="fill: #ffffff" x="788" y="307" width="134.5" height="99"/>
    <rect style="fill: none; fill-opacity:0; stroke-width: 2; stroke: #000000" x="788" y="307" width="134.5" height="99"/>
    <text font-size="12.8" style="fill: #000000;text-anchor:middle;font-family:sans-serif;font-style:normal;font-weight:normal" x="855.25" y="361.3">
      <tspan x="855.25" y="361.3"></tspan>
    </text>
  </g>
  <g>
    <rect style="fill: #ffffff" x="792.644" y="339.784" width="107.85" height="38"/>
    <rect style="fill: none; fill-opacity:0; stroke-width: 2; stroke: #000000" x="792.644" y="339.784" width="107.85" height="38"/>
    <text font-size="12.8" style="fill: #000000;text-anchor:middle;font-family:sans-serif;font-style:normal;font-weight:normal" x="846.569" y="363.584">
      <tspan x="846.569" y="363.584">Decision match</tspan>
    </text>
  </g>
  <g>
    <rect style="fill: #ffffff" x="800.5" y="350.2" width="107.85" height="38"/>
    <rect style="fill: none; fill-opacity:0; stroke-width: 2; stroke: #000000" x="800.5" y="350.2" width="107.85" height="38"/>
    <text font-size="12.8" style="fill: #000000;text-anchor:middle;font-family:sans-serif;font-style:normal;font-weight:normal" x="854.425" y="374">
      <tspan x="854.425" y="374">Decision match</tspan>
    </text>
  </g>
  <g>
    <rect style="fill: #ffffff" x="807.5" y="359.2" width="107.85" height="38"/>
    <rect style="fill: none; fill-opacity:0; stroke-width: 2; stroke: #000000" x="807.5" y="359.2" width="107.85" height="38"/>
    <text font-size="12.8" style="fill: #000000;text-anchor:middle;font-family:sans-serif;font-style:normal;font-weight:normal" x="861.425" y="383">
      <tspan x="861.425" y="383">Decision match</tspan>
    </text>
  </g>
  <text font-size="12.8" style="fill: #000000;text-anchor:start;font-family:sans-serif;font-style:normal;font-weight:normal" x="803.5" y="326">
    <tspan x="803.5" y="326">Decision Engine</tspan>
  </text>
  <g>
    <line style="fill: none; fill-opacity:0; stroke-width: 2; stroke: #000000" x1="821.625" y1="307" x2="821.208" y2="284.998"/>
    <polygon style="fill: #000000" points="826.207,284.903 821.019,275 816.209,285.093 "/>
    <polygon style="fill: none; fill-opacity:0; stroke-width: 2; stroke: #000000" points="826.207,284.903 821.019,275 816.209,285.093 "/>
  </g>
  <g>
    <line style="fill: none; fill-opacity:0; stroke-width: 2; stroke: #000000" x1="888.875" y1="307" x2="889.518" y2="287.194"/>
    <polygon style="fill: #000000" points="894.515,287.356 889.843,277.199 884.521,287.032 "/>
    <polygon style="fill: none; fill-opacity:0; stroke-width: 2; stroke: #000000" points="894.515,287.356 889.843,277.199 884.521,287.032 "/>
  </g>
  <g>
    <rect style="fill: #ffffff" x="711.5" y="237.2" width="130.7" height="38"/>
    <rect style="fill: none; fill-opacity:0; stroke-width: 2; stroke: #000000" x="711.5" y="237.2" width="130.7" height="38"/>
    <text font-size="12.8" style="fill: #000000;text-anchor:middle;font-family:sans-serif;font-style:normal;font-weight:normal" x="776.85" y="261">
      <tspan x="776.85" y="261">DSL Rules</tspan>
    </text>
  </g>
  <g>
    <rect style="fill: #ffffff" x="798.375" y="433.4" width="111.4" height="38"/>
    <rect style="fill: none; fill-opacity:0; stroke-width: 2; stroke: #000000" x="798.375" y="433.4" width="111.4" height="38"/>
    <text font-size="12.8" style="fill: #000000;text-anchor:middle;font-family:sans-serif;font-style:normal;font-weight:normal" x="854.075" y="457.2">
      <tspan x="854.075" y="457.2">Selector Plugins</tspan>
    </text>
  </g>
  <g>
    <line style="fill: none; fill-opacity:0; stroke-width: 2; stroke: #0000ff" x1="583.04" y1="360.06" x2="611.058" y2="360.382"/>
    <polygon style="fill: #0000ff" points="611.001,365.382 621.058,360.497 611.116,355.383 "/>
    <polygon style="fill: none; fill-opacity:0; stroke-width: 2; stroke: #0000ff" points="611.001,365.382 621.058,360.497 611.116,355.383 "/>
  </g>
  <line style="fill: none; fill-opacity:0; stroke-width: 2; stroke: #0000ff" x1="583.233" y1="359.208" x2="584.5" y2="425"/>
  <g>
    <rect style="fill: #ffffff" x="865.475" y="237.2" width="143.55" height="38"/>
    <rect style="fill: none; fill-opacity:0; stroke-width: 2; stroke: #000000" x="865.475" y="237.2" width="143.55" height="38"/>
    <text font-size="12.8" style="fill: #000000;text-anchor:middle;font-family:sans-serif;font-style:normal;font-weight:normal" x="937.25" y="261">
      <tspan x="937.25" y="261">Decision Level Plugin</tspan>
    </text>
  </g>
  <g>
    <rect style="fill: #ffffff" x="776.617" y="527.134" width="154.15" height="44.866"/>
    <rect style="fill: none; fill-opacity:0; stroke-width: 2; stroke: #000000" x="776.617" y="527.134" width="154.15" height="44.866"/>
    <text font-size="12.8" style="fill: #000000;text-anchor:middle;font-family:sans-serif;font-style:normal;font-weight:normal" x="853.692" y="554.367">
      <tspan x="853.692" y="554.367">ASE LLM Load Balancer</tspan>
    </text>
  </g>
</svg>
