<?xml version="1.0" encoding="UTF-8"?>
<svg xmlns="http://www.w3.org/2000/svg" width="1840" height="920" viewBox="0 0 1840 920" version="1.1">
  <defs>
    <style>
      .title { font-family: Helvetica, Arial, sans-serif; font-size: 28px; font-weight: 700; fill: #000000; }
      .subtitle { font-family: Helvetica, Arial, sans-serif; font-size: 20px; font-weight: 700; fill: #000000; }
      .section { font-family: Helvetica, Arial, sans-serif; font-size: 17px; font-weight: 700; fill: #000000; }
      .label { font-family: Helvetica, Arial, sans-serif; font-size: 15px; font-weight: 600; fill: #000000; }
      .small { font-family: Helvetica, Arial, sans-serif; font-size: 13px; fill: #000000; }
      .tiny { font-family: Helvetica, Arial, sans-serif; font-size: 12px; fill: #000000; }
      .box { fill: #ffffff; stroke: #000000; stroke-width: 2; }
      .router { fill: #ffffff; stroke: #000000; stroke-width: 2; }
      .lane { fill: #ffffff; stroke: #000000; stroke-width: 1.4; }
      .core { fill: #ffffff; stroke: #000000; stroke-width: 2.2; }
      .chip { fill: #ffffff; stroke: #000000; stroke-width: 1.2; }
      .focus { fill: #ffffff; stroke: #000000; stroke-width: 1.5; stroke-dasharray: 7 5; }
      .request { fill: none; stroke: #000000; stroke-width: 2.2; marker-end: url(#arrow); }
      .response { fill: none; stroke: #000000; stroke-width: 2.2; stroke-dasharray: 8 6; marker-end: url(#arrow); }
    </style>
    <marker id="arrow" markerWidth="10" markerHeight="10" refX="9" refY="5" orient="auto" markerUnits="strokeWidth">
      <path d="M 0 0 L 10 5 L 0 10 z" fill="#000000"/>
    </marker>
  </defs>

  <rect x="0" y="0" width="1840" height="920" fill="#ffffff"/>

  <rect x="170" y="40" width="1530" height="820" rx="18" class="box"/>
  <text x="935" y="78" text-anchor="middle" class="title">ASE LLM Gateway</text>

  <text x="245" y="120" class="tiny">Data Plane</text>
  <text x="885" y="120" class="tiny">Router Control Plane + Intelligence Plane</text>
  <text x="1465" y="120" class="tiny">Execution Plane</text>

  <rect x="40" y="370" width="110" height="56" rx="12" class="box"/>
  <text x="95" y="404" text-anchor="middle" class="label">LLM User</text>

  <rect x="220" y="328" width="220" height="140" rx="14" class="box"/>
  <text x="330" y="360" text-anchor="middle" class="subtitle">Gateway Frontend</text>
  <text x="330" y="390" text-anchor="middle" class="small">Listener</text>
  <text x="330" y="412" text-anchor="middle" class="small">REST API</text>
  <text x="330" y="434" text-anchor="middle" class="small">Req Security</text>

  <path d="M 150 398 L 220 398" class="request"/>
  <text x="156" y="356" class="small">LLM Request</text>

  <rect x="220" y="700" width="220" height="58" rx="12" class="box"/>
  <text x="330" y="736" text-anchor="middle" class="label">Resp Security / Return</text>

  <rect x="500" y="145" width="800" height="570" rx="18" class="router"/>
  <text x="900" y="180" text-anchor="middle" class="subtitle">LLM Semantic Router</text>

  <rect x="540" y="220" width="720" height="38" rx="10" class="lane"/>
  <text x="565" y="244" class="small">Control Plane: DSL / JSON | policies | model cards | preferences | sessions | overrides</text>

  <rect x="540" y="323" width="150" height="150" rx="12" class="core"/>
  <text x="615" y="358" text-anchor="middle" class="section">Signal</text>
  <text x="615" y="382" text-anchor="middle" class="section">Extraction</text>
  <text x="615" y="416" text-anchor="middle" class="tiny">keyword | embedding</text>
  <text x="615" y="435" text-anchor="middle" class="tiny">kNN | PII | jailbreak</text>

  <rect x="730" y="323" width="150" height="150" rx="12" class="core"/>
  <text x="805" y="358" text-anchor="middle" class="section">Projection</text>
  <text x="805" y="382" text-anchor="middle" class="section">Coordination</text>
  <text x="805" y="416" text-anchor="middle" class="tiny">partition | score</text>
  <text x="805" y="435" text-anchor="middle" class="tiny">mapping | continuity</text>

  <rect x="920" y="323" width="190" height="150" rx="12" class="core"/>
  <text x="1015" y="358" text-anchor="middle" class="section">Decision Engine</text>
  <text x="1015" y="402" text-anchor="middle" class="tiny">modelRefs | legal set F(r)</text>
  <text x="1015" y="421" text-anchor="middle" class="tiny">static | AutoMix | Elo | RouterDC</text>
  <text x="1015" y="440" text-anchor="middle" class="tiny">hybrid | latency-aware</text>

  <rect x="1150" y="323" width="130" height="150" rx="12" class="core"/>
  <text x="1215" y="358" text-anchor="middle" class="section">Plugin</text>
  <text x="1215" y="382" text-anchor="middle" class="section">Chain</text>
  <text x="1215" y="416" text-anchor="middle" class="tiny">RouteDecision</text>
  <text x="1215" y="435" text-anchor="middle" class="tiny">target_pool | confidence</text>

  <path d="M 440 398 L 500 398 L 500 398 L 540 398" class="request"/>
  <path d="M 690 398 L 730 398" class="request"/>
  <path d="M 880 398 L 920 398" class="request"/>
  <path d="M 1110 398 L 1150 398" class="request"/>

  <rect x="540" y="515" width="720" height="110" rx="14" class="focus"/>
  <text x="575" y="545" class="section">Plugin Fabric</text>
  <text x="585" y="570" class="small">pre-route</text>
  <text x="870" y="570" class="small">post-decision</text>
  <text x="1135" y="570" class="small">post-response</text>

  <rect x="560" y="588" width="105" height="28" rx="8" class="chip"/>
  <text x="612.5" y="606" text-anchor="middle" class="tiny">semantic-cache</text>

  <rect x="685" y="588" width="80" height="28" rx="8" class="chip"/>
  <text x="725" y="606" text-anchor="middle" class="tiny">pii</text>

  <rect x="785" y="588" width="90" height="28" rx="8" class="chip"/>
  <text x="830" y="606" text-anchor="middle" class="tiny">jailbreak</text>

  <rect x="900" y="588" width="110" height="28" rx="8" class="chip"/>
  <text x="955" y="606" text-anchor="middle" class="tiny">system_prompt</text>

  <rect x="1030" y="588" width="120" height="28" rx="8" class="chip"/>
  <text x="1090" y="606" text-anchor="middle" class="tiny">header_mutation</text>

  <rect x="1170" y="588" width="80" height="28" rx="8" class="chip"/>
  <text x="1210" y="606" text-anchor="middle" class="tiny">trace/audit</text>

  <path d="M 1215 473 L 1215 515" class="request"/>

  <rect x="540" y="650" width="720" height="34" rx="10" class="lane"/>
  <text x="565" y="672" class="small">Feedback Loop: rating | ReMoM | cache update</text>

  <rect x="1370" y="180" width="250" height="188" rx="14" class="focus"/>
  <text x="1495" y="210" text-anchor="middle" class="section">Algorithmic Focus</text>

  <rect x="1390" y="230" width="210" height="52" rx="10" class="box"/>
  <text x="1495" y="252" text-anchor="middle" class="small">Retrieval and Ranking</text>
  <text x="1495" y="270" text-anchor="middle" class="tiny">kNN | AutoMix | Elo | RouterDC</text>

  <rect x="1390" y="300" width="210" height="52" rx="10" class="box"/>
  <text x="1495" y="322" text-anchor="middle" class="small">Selection and Adaptation</text>
  <text x="1495" y="340" text-anchor="middle" class="tiny">hybrid | latency-aware | confidence | rating | ReMoM</text>

  <text x="1495" y="360" text-anchor="middle" class="tiny">LB owns health / load / queue depth</text>

  <rect x="1370" y="400" width="250" height="110" rx="14" class="box"/>
  <text x="1495" y="432" text-anchor="middle" class="subtitle">ASE LLM Load Balancer</text>
  <text x="1495" y="462" text-anchor="middle" class="small">health | load | locality | queue depth</text>
  <text x="1495" y="484" text-anchor="middle" class="small">runtime endpoint scheduling</text>

  <path d="M 1280 398 L 1330 398 L 1330 455 L 1370 455" class="request"/>
  <text x="1288" y="380" class="small">RouteDecision / target_pool</text>

  <rect x="1670" y="345" width="120" height="220" rx="14" class="box"/>
  <text x="1730" y="373" text-anchor="middle" class="label">Target Pool</text>

  <rect x="1695" y="407" width="70" height="30" rx="8" class="chip"/>
  <text x="1730" y="426" text-anchor="middle" class="tiny">LLM-1</text>

  <rect x="1695" y="457" width="70" height="30" rx="8" class="chip"/>
  <text x="1730" y="476" text-anchor="middle" class="tiny">LLM-2</text>

  <rect x="1695" y="507" width="70" height="30" rx="8" class="chip"/>
  <text x="1730" y="526" text-anchor="middle" class="tiny">LLM-N</text>

  <path d="M 1620 455 L 1670 455" class="request"/>

  <path d="M 1730 565 L 1730 730 L 440 730" class="response"/>
  <path d="M 220 729 L 180 729 L 180 398 L 150 398" class="response"/>
  <text x="114" y="770" class="small">LLM Response</text>
</svg>
